<svg xmlns="http://www.w3.org/2000/svg" width="48" height="48" fill="none">
  <defs>
    <radialGradient id="stormCloud" cx="0" cy="0" r="1" gradientTransform="rotate(-134.75 25.785 6.485) scale(36.0726 86.7758)" gradientUnits="userSpaceOnUse">
      <stop stop-color="#546E7A"/>
      <stop offset="0.4" stop-color="#455A64"/>
      <stop offset="1" stop-color="#263238"/>
    </radialGradient>

    <linearGradient id="shadow1" x1="30" x2="37" y1="15.5" y2="30.5" gradientUnits="userSpaceOnUse">
      <stop stop-color="#263238" stop-opacity="0" />
      <stop offset="1" stop-color="#263238" />
    </linearGradient>

    <linearGradient id="shadow2" x1="41.5" x2="5" y1="1" y2="15" gradientUnits="userSpaceOnUse">
      <stop stop-color="#37474F" />
      <stop offset="1" stop-color="#455A64" stop-opacity="0" />
    </linearGradient>

    <linearGradient id="thunderGrad" x1="28" y1="24" x2="28" y2="44" gradientUnits="userSpaceOnUse">
      <stop stop-color="#FFEE58"/>
      <stop offset="1" stop-color="#FBC02D"/>
    </linearGradient>
  </defs>

  <mask id="c" fill="#fff">
    <path fill-rule="evenodd" d="M47 16.5c0 8.358-6.662 15.171-15 15.488V32H11v-.002h-.143C5.413 31.999 1 27.617 1 22.21c0-5.407 4.413-9.79 9.857-9.79 1.89 0 3.654.528 5.154 1.444C17.271 6.559 23.679 1 31.393 1 40.013 1 47 7.94 47 16.5Z" clip-rule="evenodd" />
  </mask>

  <path fill="url(#stormCloud)" fill-rule="evenodd" d="M47 16.5c0 8.358-6.662 15.171-15 15.488V32H11v-.002h-.143C5.413 31.999 1 27.617 1 22.21c0-5.407 4.413-9.79 9.857-9.79 1.89 0 3.654.528 5.154 1.444C17.271 6.559 23.679 1 31.393 1 40.013 1 47 7.94 47 16.5Z" clip-rule="evenodd" />

  <path fill="url(#shadow1)" d="m32 31.988-.038-1-.962.037v.963h1ZM32 32v1h1v-1h-1Zm-21 0h-1v1h1v-1Zm0-.002h1v-1.014l-1.014.014.014 1Zm5.011-18.134-.521.853 1.256.767.25-1.45-.985-.17Zm16.027 19.123C40.905 32.651 48 25.404 48 16.5h-2c0 7.813-6.229 14.192-14.038 14.489l.076 1.998ZM33 32v-.012h-2V32h2Zm-22 1h21v-2H11v2Zm-1-1.002V32h2v-.002h-2Zm.986-1h-.13v2h.158l-.028-2Zm-.13 0C5.96 30.999 2 27.059 2 22.21H0c0 5.965 4.867 10.789 10.857 10.789v-2ZM2 22.21c0-4.848 3.959-8.79 8.857-8.79v-2C4.867 11.42 0 16.244 0 22.21h2Zm8.857-8.79c1.7 0 3.286.475 4.633 1.297l1.042-1.707a10.862 10.862 0 0 0-5.675-1.59v2ZM31.393 0C23.19 0 16.368 5.913 15.025 13.694l1.971.34C18.174 7.205 24.168 2 31.393 2V0ZM48 16.5C48 7.38 40.558 0 31.393 0v2C39.467 2 46 8.498 46 16.5h2Z" mask="url(#c)" />
  <path fill="url(#shadow2)" d="m32 31.988-.038-1-.962.037v.963h1ZM32 32v1h1v-1h-1Zm-21 0h-1v1h1v-1Zm0-.002h1v-1.014l-1.014.014.014 1Zm5.011-18.134-.521.853 1.256.767.25-1.45-.985-.17Zm16.027 19.123C40.905 32.651 48 25.404 48 16.5h-2c0 7.813-6.229 14.192-14.038 14.489l.076 1.998ZM33 32v-.012h-2V32h2Zm-22 1h21v-2H11v2Zm-1-1.002V32h2v-.002h-2Zm.986-1h-.13v2h.158l-.028-2Zm-.13 0C5.96 30.999 2 27.059 2 22.21H0c0 5.965 4.867 10.789 10.857 10.789v-2ZM2 22.21c0-4.848 3.959-8.79 8.857-8.79v-2C4.867 11.42 0 16.244 0 22.21h2Zm8.857-8.79c1.7 0 3.286.475 4.633 1.297l1.042-1.707a10.862 10.862 0 0 0-5.675-1.59v2ZM31.393 0C23.19 0 16.368 5.913 15.025 13.694l1.971.34C18.174 7.205 24.168 2 31.393 2V0ZM48 16.5C48 7.38 40.558 0 31.393 0v2C39.467 2 46 8.498 46 16.5h2Z" mask="url(#c)" />

  <path fill="url(#thunderGrad)" d="M25 44L28.5 35H24L32 24L29 33H33.5L25 44Z" />
</svg>