<svg xmlns="http://www.w3.org/2000/svg" width="48" height="48" viewBox="0 0 48 48" fill="none">
  <defs>
    <radialGradient id="snowGrad" cx="24" cy="24" r="22" gradientUnits="userSpaceOnUse">
      <stop offset="0%" stop-color="#FFFFFF" />
      <stop offset="100%" stop-color="#A5C9FF" />
    </radialGradient>
  </defs>
  <path fill="url(#snowGrad)" fill-rule="evenodd" clip-rule="evenodd" d="M24 1C25.1046 1 26 1.89543 26 3V13.1716L33.1924 5.97919C33.9734 5.19814 35.2398 5.19814 36.0208 5.97919C36.8018 6.76024 36.8018 8.02657 36.0208 8.80761L28.8284 16H39C40.1046 16 41 16.8954 41 18C41 19.1046 40.1046 20 39 20H28.8284L36.0208 27.1924C36.8018 27.9734 36.8018 29.2398 36.0208 30.0208C35.2398 30.8018 33.9734 30.8018 33.1924 30.0208L26 22.8284V33C26 34.1046 25.1046 35 24 35C22.8954 35 22 34.1046 22 33V22.8284L14.8076 30.0208C14.0266 30.8018 12.7602 30.8018 11.9792 30.0208C11.1981 29.2398 11.1981 27.9734 11.9792 27.1924L19.1716 20H9C7.89543 20 7 19.1046 7 18C7 16.8954 7.89543 16 9 16H19.1716L11.9792 8.80761C11.1981 8.02657 11.1981 6.76024 11.9792 5.97919C12.7602 5.19814 14.0266 5.19814 14.8076 5.97919L22 13.1716V3C22 1.89543 22.8954 1 24 1Z"/>
  <circle cx="12" cy="40" r="3" fill="url(#snowGrad)"/>
  <circle cx="36" cy="42" r="2" fill="url(#snowGrad)"/>
</svg>